<svg xmlns="http://www.w3.org/2000/svg" viewBox="0 0 400 300" width="406" height="306" class="illustration styles_illustrationTablet__1DWOa"><g id="_529_campaign_launch_outline" data-name="#529_campaign_launch_outline"><path d="M304.46,95.51V210a5.39,5.39,0,0,1-5.39,5.39H100.93A5.39,5.39,0,0,1,95.54,210V95.51Z" fill="#fff"></path><path d="M299.07,216.38H100.93A6.4,6.4,0,0,1,94.54,210V95.51a1,1,0,0,1,1-1H304.46a1,1,0,0,1,1,1V210A6.4,6.4,0,0,1,299.07,216.38ZM96.54,96.51V210a4.4,4.4,0,0,0,4.39,4.39H299.07a4.4,4.4,0,0,0,4.39-4.39V96.51Z" fill="#093f68"></path><path d="M100.93,80.24H299.08a5.39,5.39,0,0,1,5.39,5.39v9.89a0,0,0,0,1,0,0H95.55a0,0,0,0,1,0,0V85.63A5.39,5.39,0,0,1,100.93,80.24Z" fill="#68e1fd"></path><path d="M304.46,96.51H95.55a1,1,0,0,1-1-1V85.63a6.39,6.39,0,0,1,6.38-6.39H299.08a6.39,6.39,0,0,1,6.38,6.39v9.88A1,1,0,0,1,304.46,96.51Zm-207.91-2H303.46V85.63a4.39,4.39,0,0,0-4.38-4.39H100.93a4.39,4.39,0,0,0-4.38,4.39Z" fill="#093f68"></path><path d="M285.59,215.38H114.42q2-4.12,4.45-8A95.19,95.19,0,0,1,200,162.21c1.27,0,2.54,0,3.8.08a95.53,95.53,0,0,1,81.79,53.09Z" fill="#68e1fd"></path><path d="M285.59,216.38H114.42a1,1,0,0,1-.85-.47,1,1,0,0,1,0-1,92.42,92.42,0,0,1,4.5-8.1,96.2,96.2,0,0,1,82-45.63c1.43,0,2.69,0,3.84.08a96.51,96.51,0,0,1,82.64,53.64,1,1,0,0,1,0,1A1,1,0,0,1,285.59,216.38Zm-169.55-2H284a94.52,94.52,0,0,0-80.2-51.09c-1.13-.06-2.36-.08-3.76-.08a94.16,94.16,0,0,0-80.28,44.69C118.39,210,117.16,212.2,116,214.38Z" fill="#093f68"></path><circle cx="107" cy="87.12" r="2.35" fill="#f56132"></circle><path d="M107,84.78a2.35,2.35,0,1,1-2.35,2.34A2.34,2.34,0,0,1,107,84.78m0-2a4.35,4.35,0,1,0,4.34,4.34A4.35,4.35,0,0,0,107,82.78Z" fill="#093f68"></path><circle cx="117.79" cy="87.12" r="2.35" fill="#ffbc0e"></circle><path d="M117.79,84.78a2.35,2.35,0,1,1-2.35,2.34,2.35,2.35,0,0,1,2.35-2.34m0-2a4.35,4.35,0,1,0,4.35,4.34,4.35,4.35,0,0,0-4.35-4.34Z" fill="#093f68"></path><circle cx="128.58" cy="87.12" r="2.35" fill="#70cc40"></circle><path d="M128.58,84.78a2.35,2.35,0,1,1-2.34,2.34,2.35,2.35,0,0,1,2.34-2.34m0-2a4.35,4.35,0,1,0,4.35,4.34,4.35,4.35,0,0,0-4.35-4.34Z" fill="#093f68"></path><path d="M171,170.83a22.38,22.38,0,0,1-7.3,16c-3.88,3.49-9.09,5.74-11.63,10.3-3,5.42-1.48,12.83-3.67,18.28H125.72a31.29,31.29,0,0,1-6.21-6.91c-.23-.37-.44-.74-.64-1.1a95.66,95.66,0,0,1,51.78-40.57A18.87,18.87,0,0,1,171,170.83Z" fill="#70cc40"></path><path d="M148.39,216.38H125.72a1,1,0,0,1-.67-.25,32.55,32.55,0,0,1-6.4-7.14q-.34-.57-.66-1.14a1,1,0,0,1,0-1,96.62,96.62,0,0,1,52.32-41,1,1,0,0,1,.82.09,1,1,0,0,1,.47.67,20,20,0,0,1,.36,4.24,23.51,23.51,0,0,1-7.63,16.69A48.46,48.46,0,0,1,160,190.9c-2.82,2-5.49,3.88-7,6.68s-1.82,6.27-2.09,9.64a29.26,29.26,0,0,1-1.53,8.53A1,1,0,0,1,148.39,216.38Zm-22.29-2h21.59a31.42,31.42,0,0,0,1.16-7.32c.29-3.58.58-7.29,2.33-10.45s4.76-5.31,7.65-7.34a46,46,0,0,0,4.19-3.22,21.48,21.48,0,0,0,7-15.24h0a18.43,18.43,0,0,0-.14-2.69A94.58,94.58,0,0,0,120,207.39a6.16,6.16,0,0,0,.33.55A29.44,29.44,0,0,0,126.1,214.38Z" fill="#093f68"></path><path d="M285.59,215.38H266.43a30.68,30.68,0,0,0-5.33-5.47c-2.18-1.66-4.92-3.18-5.47-5.86-1.08-5.2-.12-6.4-5.49-7.89a22,22,0,0,0-9.59-.85c-3.93.66-6.72,2.09-10.58-.34a10.71,10.71,0,0,1-4.87-9.78c.35-4.09,3.06-8.17,1.61-12-.5-1.31-1.48-2.51-1.49-3.92-.07-6.56,13.77,1.21,16.23,2.4a95.86,95.86,0,0,1,44.14,43.72Z" fill="#70cc40"></path><path d="M285.59,216.38H266.43a1,1,0,0,1-.79-.38,29.72,29.72,0,0,0-5.15-5.3c-.35-.27-.72-.53-1.1-.8-2-1.42-4.21-3-4.74-5.65-.2-1-.34-1.8-.45-2.52-.48-3-.56-3.56-4.33-4.61a20.87,20.87,0,0,0-9.15-.82c-.77.12-1.48.28-2.17.43-2.92.64-5.67,1.25-9.12-.92a11.74,11.74,0,0,1-5.33-10.71,23.76,23.76,0,0,1,1.05-4.67c.73-2.45,1.42-4.77.62-6.89a11.52,11.52,0,0,0-.56-1.2,6.76,6.76,0,0,1-1-3.07,3.26,3.26,0,0,1,1.47-3c2.94-1.81,9.35,1,15.23,4l1,.49a96.84,96.84,0,0,1,44.59,44.17,1,1,0,0,1,0,1A1,1,0,0,1,285.59,216.38Zm-18.68-2h17A94.9,94.9,0,0,0,241,172.56l-1-.51c-7.23-3.7-11.69-5.09-13.26-4.12-.15.09-.54.33-.53,1.32a5,5,0,0,0,.77,2.18,11.26,11.26,0,0,1,.65,1.4c1,2.75.22,5.51-.57,8.17a22.44,22.44,0,0,0-1,4.27,9.73,9.73,0,0,0,4.41,8.85c2.75,1.73,4.79,1.28,7.62.66.72-.16,1.47-.32,2.26-.46a23,23,0,0,1,10,.87c4.76,1.33,5.2,2.64,5.77,6.22.11.7.23,1.5.43,2.43.38,1.86,2.11,3.11,3.95,4.44.39.28.77.55,1.14.83A30.76,30.76,0,0,1,266.91,214.38Z" fill="#093f68"></path><path d="M175.44,196.06c-.25-7-7.08-1.79-8.84,1-1.36,2.13-6.08,4.9-3.15,7.47a5.43,5.43,0,0,0,5.6.65,10.85,10.85,0,0,0,4.42-3.87A8.75,8.75,0,0,0,175.44,196.06Z" fill="#70cc40"></path><path d="M166.67,206.65a5.79,5.79,0,0,1-3.88-1.39,3.33,3.33,0,0,1-1.28-2.43c-.06-1.77,1.44-3.3,2.77-4.66a11.23,11.23,0,0,0,1.47-1.67c1.34-2.09,5.33-5.59,8.19-4.81,1.08.29,2.39,1.28,2.5,4.33h0a9.53,9.53,0,0,1-2.16,5.85,11.6,11.6,0,0,1-4.84,4.21A7.19,7.19,0,0,1,166.67,206.65ZM173,193.57c-1.66,0-4.54,2.35-5.6,4a13.75,13.75,0,0,1-1.73,2c-1,1-2.23,2.27-2.2,3.18a1.39,1.39,0,0,0,.6,1,4.46,4.46,0,0,0,4.56.48,9.82,9.82,0,0,0,4-3.53,7.72,7.72,0,0,0,1.78-4.62h0c0-1-.24-2.26-1-2.47A1.58,1.58,0,0,0,173,193.57Z" fill="#093f68"></path><path d="M190.27,151.9s-3.86,7.21-4.32,19.1,11.29,43.23,11.29,43.23h5.62s8-20.4,10.47-36.59-3.59-25.74-3.59-25.74Z" fill="#f56132"></path><path d="M209.73,151.9s6.09,9.43,3.6,25.74-10.47,36.59-10.47,36.59h-5.62S185.5,182.89,186,171s4.32-19.1,4.32-19.1h19.46m0-2H190.27a2,2,0,0,0-1.76,1c-.17.31-4.09,7.76-4.56,20s10.93,42.72,11.42,44a2,2,0,0,0,1.87,1.29h5.62a2,2,0,0,0,1.86-1.27c.33-.84,8.11-20.8,10.59-37,2.57-16.86-3.63-26.71-3.89-27.12a2,2,0,0,0-1.69-.92Z" fill="#093f68"></path><rect x="190.27" y="138.62" width="19.46" height="13.28" fill="#093f68"></rect><path d="M209.74,152.9H190.27a1,1,0,0,1-1-1V138.62a1,1,0,0,1,1-1h19.47a1,1,0,0,1,1,1V151.9A1,1,0,0,1,209.74,152.9Zm-18.47-2h17.47V139.62H191.27Z" fill="#093f68"></path><polygon points="187.69 119.27 171.1 135.22 175.92 161.94 184.73 139.82 189.92 137.81 187.69 119.27" fill="#68e1fd"></polygon><path d="M175.92,162.94h-.1a1,1,0,0,1-.88-.82l-4.82-26.71a1,1,0,0,1,.29-.9l16.58-16a1,1,0,0,1,1.69.6l2.24,18.54a1,1,0,0,1-.64,1.05l-4.79,1.86-8.64,21.71A1,1,0,0,1,175.92,162.94Zm-3.74-27.37,4.11,22.75,7.51-18.87a1,1,0,0,1,.56-.56l4.48-1.74-1.91-15.77Z" fill="#093f68"></path><polygon points="212.32 119.27 228.91 135.22 224.08 161.94 215.28 139.82 210.09 137.81 212.32 119.27" fill="#68e1fd"></polygon><path d="M224.08,162.94a1,1,0,0,1-.92-.63l-8.65-21.71-4.79-1.86a1,1,0,0,1-.63-1.05l2.24-18.54a1,1,0,0,1,1.69-.6l16.58,16a1,1,0,0,1,.29.9l-4.82,26.71a1,1,0,0,1-.89.82Zm-12.91-25.79,4.47,1.74a1,1,0,0,1,.57.56l7.51,18.87,4.11-22.75-14.75-14.19Z" fill="#093f68"></path><path d="M214.47,144.18c3.12-15.27,5-31.81,5-42.8,0-23.53-19.5-39.56-19.5-39.56s-19.49,16-19.49,39.56c0,11,1.91,27.53,5,42.8Z" fill="#68e1fd"></path><path d="M214.47,145.18H185.54a1,1,0,0,1-1-.8c-3.11-15.22-5.05-31.69-5.05-43,0-23.73,19.66-40.17,19.86-40.34a1,1,0,0,1,1.27,0c.2.17,19.86,16.61,19.86,40.34,0,11.31-1.94,27.79-5.05,43A1,1,0,0,1,214.47,145.18Zm-28.11-2h27.29c2.95-14.66,4.85-31,4.85-41.8,0-20.38-15.17-35.23-18.5-38.23-3.32,3-18.49,17.85-18.49,38.23C181.51,112.2,183.41,128.52,186.36,143.18Z" fill="#093f68"></path><circle cx="200" cy="97.55" r="9.73" fill="#fff"></circle><path d="M200,108.28a10.73,10.73,0,1,1,10.74-10.73A10.75,10.75,0,0,1,200,108.28Zm0-19.46a8.73,8.73,0,1,0,8.74,8.73A8.74,8.74,0,0,0,200,88.82Z" fill="#093f68"></path><path d="M197.24,152.18s-3.16,5-3.14,13.71c0,7.89,5.75,31.69,5.75,31.69s6.8-28.83,6.1-35.36-3.23-10-3.23-10Z" fill="#ffbc0e"></path><path d="M199.85,198.58a1,1,0,0,1-1-.77c-.23-1-5.76-24-5.78-31.92,0-8.93,3.16-14,3.29-14.25a1,1,0,0,1,.85-.46h5.48a1,1,0,0,1,.81.41c.11.16,2.7,3.8,3.41,10.52s-5.84,34.51-6.11,35.7a1,1,0,0,1-1,.77Zm-2-45.4a28.11,28.11,0,0,0-2.72,12.71c0,5.68,3.11,20.05,4.74,27.23,1.84-8.22,5.63-26,5.12-30.8a23.07,23.07,0,0,0-2.79-9.14Z" fill="#093f68"></path><path d="M155.63,144.21a1,1,0,0,1-.93-.64l-6.21-16a1,1,0,1,1,1.86-.73l6.22,16a1,1,0,0,1-.57,1.29A1,1,0,0,1,155.63,144.21Z" fill="#dfeaef"></path><path d="M138.51,153.54a1,1,0,0,1-.72-.32l-19.21-20.38a1,1,0,0,1,0-1.42,1,1,0,0,1,1.41,0l19.21,20.39a1,1,0,0,1,0,1.41A1,1,0,0,1,138.51,153.54Z" fill="#dfeaef"></path><path d="M122.29,169.53a1,1,0,0,1-.45-.11l-13-6.59a1,1,0,1,1,.91-1.79l13,6.6a1,1,0,0,1-.46,1.89Z" fill="#dfeaef"></path><path d="M244.32,144.21a.92.92,0,0,1-.36-.07,1,1,0,0,1-.57-1.29l6.22-16a1,1,0,1,1,1.86.73l-6.21,16A1,1,0,0,1,244.32,144.21Z" fill="#dfeaef"></path><path d="M261.45,153.54a1,1,0,0,1-.69-.28,1,1,0,0,1,0-1.41l19.21-20.39a1,1,0,0,1,1.41,0,1,1,0,0,1,0,1.42l-19.21,20.38A1,1,0,0,1,261.45,153.54Z" fill="#dfeaef"></path><path d="M277.67,169.53a1,1,0,0,1-.89-.55,1,1,0,0,1,.43-1.34l13-6.6a1,1,0,1,1,.91,1.79l-12.95,6.59A1,1,0,0,1,277.67,169.53Z" fill="#dfeaef"></path></g></svg>